<?xml version="1.0" encoding="UTF-8" standalone="no"?><!DOCTYPE svg PUBLIC "-//W3C//DTD SVG 1.1//EN" "http://www.w3.org/Graphics/SVG/1.1/DTD/svg11.dtd"><svg width="100%" height="100%" viewBox="0 0 3000 3000" version="1.1" xmlns="http://www.w3.org/2000/svg" xmlns:xlink="http://www.w3.org/1999/xlink" xml:space="preserve" xmlns:serif="http://www.serif.com/" style="fill-rule:evenodd;clip-rule:evenodd;stroke-linejoin:round;stroke-miterlimit:2;"><rect id="Prancheta1" x="0" y="0" width="3000" height="3000" style="fill:none;"/><clipPath id="_clip1"><rect id="Prancheta11" serif:id="Prancheta1" x="0" y="0" width="3000" height="3000"/></clipPath><g clip-path="url(#_clip1)"><path d="M558.872,1134.51c-284.709,-63.405 -558.872,61.935 -558.872,61.935l-0,1803.55l2605.47,0c-0,0 27.277,-263.092 15.26,-373.812c-12.509,-115.657 -48.911,-225.07 -96.378,-322.83c-107.125,-220.895 -269.47,-385.705 -444.959,-503.758c-175.489,-118.053 -366.56,-182.63 -553.882,-264.566c-253.421,-110.848 -590.631,-316.782 -966.642,-400.521Z" style="fill:#badc58;fill-opacity:0.42;fill-rule:nonzero;"/><g><path d="M307.3,857.326c4.933,-6.115 10.014,-12.215 15.095,-18.126l4.293,3.691c-7.296,8.488 -14.539,17.313 -21.476,26.158l-4.457,-3.496c2.16,-2.752 4.342,-5.495 6.545,-8.227Zm-26.976,35.531l4.609,3.291c-6.521,9.135 -12.922,18.55 -19.029,27.983l-4.754,-3.075c6.152,-9.506 12.601,-18.994 19.174,-28.199Zm64.872,-79.009c7.767,-8.25 15.818,-16.424 23.935,-24.292l3.94,4.067c-8.053,7.81 -16.044,15.918 -23.751,24.107l-4.124,-3.882Zm-101.913,136.25l4.89,2.853c-5.674,9.725 -11.192,19.687 -16.389,29.605l-5.015,-2.628c5.238,-9.995 10.794,-20.032 16.514,-29.83Zm150.864,-183.711c8.48,-7.499 17.246,-14.902 26.057,-22.001l3.554,4.412c-8.745,7.043 -17.443,14.389 -25.857,21.833l-3.754,-4.244Zm-182.508,244.105l5.134,2.393c-4.758,10.201 -9.332,20.629 -13.599,30.992l-5.238,-2.158c4.299,-10.443 8.908,-20.949 13.703,-31.227Zm235.605,-286.882c9.14,-6.692 18.55,-13.256 27.973,-19.506l3.131,4.718c-9.35,6.204 -18.688,12.717 -27.756,19.359l-3.348,-4.571Zm-261.555,349.936l5.33,1.912c-3.788,10.568 -7.382,21.37 -10.684,32.114l-5.414,-1.667c3.326,-10.823 6.949,-21.709 10.768,-32.359l0,0Zm318.45,-387.682c9.717,-5.822 19.718,-11.501 29.72,-16.878l2.683,4.99c-9.926,5.336 -19.848,10.971 -29.494,16.748l-2.909,-4.86Zm-338.461,452.787l5.484,1.412c-2.792,10.831 -5.375,21.899 -7.675,32.895l-5.545,-1.161c2.319,-11.081 4.922,-22.232 7.735,-33.145l0.001,-0.001Zm-13.94,66.618l5.588,0.905c-1.794,11.099 -3.356,22.365 -4.637,33.481l-5.624,-0.649c1.29,-11.202 2.86,-22.553 4.673,-33.737l0,-0Zm-7.798,67.66l5.647,0.391c-0.773,11.191 -1.298,22.558 -1.562,33.783l-5.663,-0.134c0.265,-11.309 0.796,-22.764 1.578,-34.04Zm548.244,-666.894c10.908,-2.946 22.056,-5.687 33.138,-8.144l1.225,5.53c-10.997,2.439 -22.06,5.158 -32.883,8.082l-1.48,-5.468Zm-549.848,735.016l5.663,-0.122c0.248,11.211 0.758,22.582 1.515,33.8l-5.651,0.38c-0.764,-11.302 -1.278,-22.76 -1.527,-34.058l-0,-0Zm616.454,-749.783c11.15,-1.945 22.496,-3.659 33.727,-5.093l0.719,5.619c-11.147,1.423 -22.408,3.123 -33.473,5.052l-0.973,-5.578Zm-611.848,817.805l5.627,-0.642c1.271,11.177 2.812,22.463 4.583,33.539l-5.592,0.898c-1.786,-11.163 -3.338,-22.532 -4.618,-33.795Zm679.49,-826.449c11.298,-0.923 22.75,-1.596 34.037,-2.003l0.202,5.66c-11.202,0.403 -22.565,1.072 -33.777,1.989l-0.462,-5.646Zm-668.718,893.795l5.546,-1.147c2.279,11.01 4.843,22.107 7.621,32.993l-5.487,1.402c-2.8,-10.968 -5.386,-22.154 -7.68,-33.247l0,-0.001Zm736.839,-896.251c11.304,0.105 22.763,0.475 34.062,1.099l-0.312,5.654c-11.211,-0.617 -22.584,-0.985 -33.805,-1.091l0.055,-5.662Zm-719.967,962.364l5.417,-1.65c3.272,10.756 6.838,21.582 10.603,32.177l-5.34,1.897c-3.789,-10.679 -7.383,-21.588 -10.68,-32.424l-0,-0Zm787.993,-958.615c11.239,1.137 22.609,2.549 33.8,4.198l-0.825,5.603c-11.106,-1.636 -22.391,-3.037 -33.542,-4.164l0.567,-5.637Zm-765.151,1022.95l5.243,-2.139c4.245,10.411 8.793,20.867 13.517,31.085l-5.143,2.375c-4.759,-10.292 -9.34,-20.832 -13.617,-31.322l0,0.001Zm28.665,61.988l5.027,-2.61c5.189,9.985 10.684,19.986 16.33,29.725l-4.9,2.841c-5.691,-9.815 -11.226,-19.895 -16.457,-29.956l0,0Zm869.979,-1058.95c10.837,3.164 21.746,6.622 32.426,10.28l-1.836,5.359c-10.598,-3.631 -21.422,-7.062 -32.176,-10.202l1.586,-5.437Zm-835.693,1118.08l4.762,-3.066c6.07,9.438 12.448,18.869 18.961,28.032l-4.617,3.282c-6.562,-9.234 -12.989,-18.74 -19.106,-28.248Zm900.116,-1096.01c10.517,4.155 21.088,8.614 31.421,13.256l-2.321,5.167c-10.255,-4.607 -20.746,-9.032 -31.182,-13.155l2.082,-5.268Zm-860.619,1151.59l4.464,-3.489c6.903,8.828 14.125,17.632 21.458,26.166l-4.294,3.692c-7.393,-8.6 -14.667,-17.471 -21.628,-26.37l0,0.001Zm922.815,-1123.64c10.093,5.108 20.207,10.52 30.064,16.092l-2.784,4.932c-9.785,-5.53 -19.822,-10.901 -29.837,-15.969l2.557,-5.055Zm-878.374,1175.35l4.124,-3.887c7.677,8.151 15.673,16.254 23.767,24.088l-3.939,4.071c-8.157,-7.895 -16.213,-16.061 -23.952,-24.272l0,-0Zm937.732,-1141.81c9.566,6.001 19.142,12.317 28.464,18.773l-3.225,4.658c-9.252,-6.41 -18.755,-12.677 -28.25,-18.632l3.011,-4.799Zm-888.752,1189.23l3.751,-4.244c8.419,7.439 17.118,14.786 25.855,21.835l-3.556,4.408c-8.804,-7.102 -17.57,-14.504 -26.05,-21.999Zm944.802,-1150.41c5.527,4.21 11.103,8.583 16.571,12.992c3.393,2.737 6.755,5.497 10.088,8.282l-3.634,4.346c-3.307,-2.764 -6.643,-5.504 -10.01,-8.219c-5.427,-4.377 -10.963,-8.717 -16.449,-12.897l3.434,-4.504Zm48.499,47.897l3.825,-4.177c8.365,7.656 16.649,15.592 24.624,23.588l-4.011,3.999c-7.914,-7.936 -16.136,-15.81 -24.437,-23.41l-0.001,0Zm-898.105,1168.32c9.401,6.131 14.615,8.338 24.3,14.041l-2.874,4.88c-9.758,-5.747 -17.304,-10.012 -26.778,-16.187l5.352,-2.734Zm945.887,-1120.41l4.189,-3.813c7.631,8.386 15.155,17.046 22.366,25.743l-4.36,3.615c-7.156,-8.63 -14.622,-17.224 -22.195,-25.545Zm-892.041,1150.94c9.956,5.256 20.142,10.343 30.278,15.116l-2.414,5.124c-10.212,-4.81 -20.478,-9.936 -30.508,-15.231l2.644,-5.009Zm935.234,-1098.86l4.521,-3.411c6.811,9.028 13.508,18.344 19.904,27.691l-4.673,3.198c-6.348,-9.274 -12.994,-18.519 -19.752,-27.478Zm-874.012,1127.68c10.377,4.313 20.987,8.438 31.539,12.264l-1.928,5.324c-10.635,-3.853 -21.329,-8.011 -31.785,-12.356l2.174,-5.232Zm912.276,-1071.76l4.816,-2.98c5.971,9.653 11.792,19.571 17.304,29.479l-4.951,2.754c-5.468,-9.832 -11.245,-19.675 -17.169,-29.253Zm-848.662,1094.82c10.707,3.329 21.628,6.454 32.46,9.286l-1.434,5.482c-10.916,-2.855 -21.92,-6.003 -32.707,-9.358l1.681,-5.41Zm881.627,-1035.56l5.073,-2.521c5.048,10.15 9.927,20.556 14.502,30.927l-5.182,2.287c-4.54,-10.293 -9.382,-20.619 -14.393,-30.693Zm-816.306,1052.64c10.965,2.333 22.136,4.444 33.199,6.272l-0.922,5.588c-11.15,-1.842 -22.405,-3.97 -33.455,-6.322l1.178,-5.538Zm843.66,-990.632l5.282,-2.046c4.089,10.558 7.991,21.362 11.597,32.111l-5.37,1.802c-3.579,-10.668 -7.451,-21.39 -11.509,-31.867Zm-776.997,1001.66c11.173,1.324 22.496,2.406 33.654,3.216l-0.409,5.647c-11.244,-0.816 -22.654,-1.904 -33.912,-3.24l0.667,-5.623Zm798.541,-937.435l5.447,-1.554c3.107,10.896 6.005,22.006 8.61,33.022l-5.512,1.304c-2.586,-10.933 -5.46,-21.959 -8.545,-32.772Zm-731.112,942.328c11.243,0.301 22.623,0.349 33.827,0.138l0.106,5.663c-11.289,0.211 -22.755,0.164 -34.085,-0.138l0.152,-5.663Zm746.695,-876.437l5.566,-1.05c2.098,11.107 3.97,22.43 5.565,33.654l-5.606,0.797c-1.584,-11.139 -3.443,-22.377 -5.525,-33.401Zm-679.064,875.176c11.223,-0.722 22.568,-1.712 33.714,-2.939l0.62,5.631c-11.233,1.236 -22.661,2.233 -33.969,2.96l-0.365,-5.652Zm688.584,-808.168l5.638,-0.541c1.082,11.279 1.917,22.721 2.482,34.006l-5.658,0.283c-0.56,-11.199 -1.388,-22.554 -2.462,-33.748Zm-621.321,800.764c11.122,-1.742 22.333,-3.759 33.321,-5.996l1.129,5.551c-11.07,2.253 -22.367,4.286 -33.574,6.041l-0.876,-5.596Zm624.71,-733.195l5.663,-0.026c0.052,11.298 -0.156,22.762 -0.62,34.075l-5.659,-0.23c0.46,-11.23 0.667,-22.607 0.616,-33.819Zm-2.772,67.562l5.642,0.49c-0.976,11.259 -2.229,22.649 -3.72,33.86l-5.615,-0.748c1.48,-11.124 2.722,-22.43 3.693,-33.602Zm-8.917,66.991l5.575,1.005c-2.004,11.128 -4.291,22.35 -6.797,33.356l-5.523,-1.258c2.486,-10.921 4.757,-22.058 6.745,-33.103Zm-418.987,540.272c10.236,-4.691 20.494,-9.681 30.488,-14.83l2.594,5.035c-10.071,5.19 -20.409,10.218 -30.723,14.945l-2.359,-5.15Zm403.99,-474.421l5.459,1.51c-3.012,10.889 -6.316,21.847 -9.819,32.57l-5.385,-1.76c3.478,-10.641 6.756,-21.515 9.745,-32.32Zm-343.72,443.367c9.75,-5.609 19.51,-11.527 29.008,-17.592l3.048,4.776c-9.571,6.109 -19.405,12.073 -29.231,17.724l-2.825,-4.908Zm322.724,-379.131l5.297,2.006c-4.012,10.593 -8.322,21.228 -12.81,31.604l-5.198,-2.248c4.454,-10.298 8.731,-20.85 12.711,-31.362Zm-265.62,342.673c9.179,-6.475 18.33,-13.25 27.196,-20.137l3.474,4.473c-8.935,6.941 -18.155,13.767 -27.406,20.294l-3.264,-4.63Zm238.766,-280.567l5.089,2.486c-4.966,10.171 -10.237,20.362 -15.664,30.288l-4.97,-2.715c5.386,-9.853 10.616,-19.965 15.545,-30.059Zm-185.332,239.059c8.536,-7.285 17.024,-14.872 25.227,-22.553l3.873,4.133c-8.268,7.74 -16.821,15.387 -25.423,22.729l-3.677,-4.309Zm152.876,-179.688l4.84,2.942c-5.875,9.666 -12.056,19.331 -18.371,28.724l-4.7,-3.16c6.266,-9.322 12.399,-18.911 18.231,-28.506Zm-103.48,133.448c7.823,-8.024 15.584,-16.353 23.066,-24.762l4.23,3.768c-7.538,8.47 -15.357,16.863 -23.24,24.948l-4.056,-3.954Zm65.733,-77.291l4.554,3.368c-6.199,8.375 -12.688,16.771 -19.289,24.959l-1.613,1.993l-4.398,-3.57l1.602,-1.979c6.552,-8.126 12.993,-16.461 19.144,-24.771l0,0Z" style="fill:#31aa00;fill-rule:nonzero;"/><path d="M1723.3,793.146l0,1835.74c-0.045,45.23 -37.267,82.427 -82.497,82.441l-745.254,-0c-0.048,-0 -0.096,-0 -0.144,-0c-45.178,-0 -82.354,-37.176 -82.354,-82.354c0,-0.029 0,-0.058 0,-0.087l0,-1835.74c0,-0.002 0,-0.004 0,-0.007c0,-45.253 37.238,-82.49 82.491,-82.49c0.002,-0 0.005,-0 0.007,-0l111.526,-0l0,14.302c-0.005,37.262 30.65,67.93 67.913,67.94l379.041,0c14.498,0.031 28.626,-4.618 40.272,-13.254c2.354,-1.712 4.588,-3.586 6.684,-5.607c13.401,-12.797 20.982,-30.549 20.957,-49.079l-0,-14.302l118.861,-0c0.008,-0 0.017,-0 0.025,-0c45.243,-0 82.472,37.229 82.472,82.472c0,0.008 0,0.017 0,0.025Z" style="fill:#4a6c43;fill-rule:nonzero;"/><rect x="922.009" y="1372.41" width="692.336" height="526.761" style="fill:#badc58;"/><path d="M557.432,1283.66c61.642,1.323 110.677,45.993 110.677,45.993c0,0 -50.906,42.527 -112.547,41.204c-61.642,-1.322 -110.677,-45.992 -110.677,-45.992c-0,-0 50.905,-42.527 112.547,-41.205Z" style="fill:#badc58;fill-rule:nonzero;"/><path d="M247.529,1073.24c55.69,26.457 119.55,8.516 119.55,8.516c-0,0 -26.433,-60.838 -82.124,-87.295c-55.691,-26.458 -119.55,-8.516 -119.55,-8.516c-0,-0 26.433,60.837 82.124,87.295Z" style="fill:#badc58;fill-rule:nonzero;"/><path d="M253.19,1046.95c61.4,-5.612 115.143,33.267 115.143,33.267c0,0 -45.806,47.977 -107.206,53.588c-61.4,5.611 -115.143,-33.268 -115.143,-33.268c-0,0 45.805,-47.976 107.206,-53.587Z" style="fill:#4a6c43;fill-rule:nonzero;"/><path d="M478.263,1057.58c-5.885,61.375 32.754,115.291 32.754,115.291c-0,-0 48.18,-45.591 54.065,-106.966c5.886,-61.374 -32.753,-115.291 -32.753,-115.291c-0,0 -48.18,45.591 -54.066,106.966Z" style="fill:#4a6c43;fill-rule:nonzero;"/><path d="M767.428,1433.99c-32.205,52.577 -21.125,117.977 -21.125,117.977c-0,-0 63.294,-19.844 95.499,-72.421c32.204,-52.577 21.124,-117.977 21.124,-117.977c0,0 -63.294,19.844 -95.498,72.421Z" style="fill:#4a6c43;fill-rule:nonzero;"/><path d="M673.998,2005.63l4.693,-3.172c-16.541,-24.004 -25.576,-52.393 -25.95,-81.542c0.131,-42.644 21.077,-82.086 41.334,-120.23c3.76,-7.081 7.508,-14.139 11.113,-21.191c15.132,-28.76 27.191,-59.034 35.978,-90.321c31.421,-116.766 0.486,-254.527 -82.75,-368.512c-66.031,-90.424 -164.462,-169.495 -300.916,-241.731l-2.65,5.005c135.677,71.825 233.478,150.352 298.992,240.066c82.234,112.613 112.833,248.576 81.854,363.7c-8.684,30.904 -20.6,60.808 -35.55,89.215c-3.594,7.027 -7.328,14.057 -11.074,21.112c-20.579,38.753 -41.86,78.825 -41.995,122.871c0.374,30.284 9.747,59.784 26.921,84.73Z" style="fill:#3f3d56;fill-rule:nonzero;"/><circle cx="88.527" cy="1032.57" r="53.809" style="fill:#4a6c43;"/><path d="M845.991,1906.01l-337.775,-28.148l-0,-495.404l337.775,-16.888l0,540.44Z" style="fill:#badc58;fill-rule:nonzero;"/><path d="M1690.36,1906.01l337.776,-28.148l0,-495.404l-337.776,-16.888l0,540.44Z" style="fill:#badc58;fill-rule:nonzero;"/><path d="M1385.59,1570.13c-20.504,-17.713 -49.773,-21.434 -74.057,-9.414c-10.336,4.999 -21.457,8.181 -32.873,9.404c-0.284,-24.726 4.255,-49.273 13.363,-72.263l1.494,-3.855l-19.852,0l-0.57,2.084c-2.212,8.13 -3.955,16.38 -5.219,24.71c-1.074,-3.611 -2.464,-7.12 -4.154,-10.486c-13.925,-27.609 -46.099,-38.901 -47.463,-39.367l-2.743,-0.94l-0.876,2.764c-0.434,1.375 -10.48,33.959 3.444,61.568c9.969,19.768 29.291,31.168 39.964,36.222c-13.508,-0.87 -26.712,-4.403 -38.851,-10.393c-15.419,-7.945 -34.101,-6.368 -47.969,4.049c-37.067,28.167 -58.327,69.456 -58.327,113.281c-0,57.57 37.283,110.292 94.983,134.314c5.205,2.16 10.786,3.268 16.421,3.261c7.824,0.002 15.506,-2.105 22.235,-6.098c18.182,-10.575 40.706,-10.621 58.931,-0.119c11.743,6.927 26.087,7.937 38.686,2.724c57.364,-24.117 94.43,-76.747 94.43,-134.082c-0,-41.039 -18.113,-79.168 -50.997,-107.364Zm-107.591,-70.464l7.289,0c-8.199,21.958 -12.378,45.214 -12.337,68.653l-1.301,-0c-1.755,-23.078 0.391,-46.288 6.349,-68.653Zm-56.857,32.119c-10.572,-20.959 -5.935,-45.942 -3.886,-54.371c7.994,3.354 30.817,14.448 41.408,35.446c10.569,20.957 5.935,45.935 3.886,54.369c-8,-3.366 -30.84,-14.488 -41.408,-35.444Zm118.819,274.57c-10.95,4.528 -23.418,3.643 -33.618,-2.387c-20.004,-11.547 -44.741,-11.495 -64.696,0.135c-10.176,6.055 -22.632,6.974 -33.587,2.478c-55.581,-23.14 -91.495,-73.81 -91.495,-129.088c0,-42.038 20.444,-81.684 56.089,-108.769c6.837,-5.165 15.181,-7.951 23.749,-7.929c6.33,-0.005 12.569,1.505 18.197,4.402c31.391,14.98 67.885,15.197 99.452,0.591c22.252,-11.009 49.068,-7.593 67.849,8.643c31.612,27.102 49.022,63.703 49.022,103.062c-0,55.051 -35.705,105.63 -90.962,128.862Z" style="fill:#fff;fill-rule:nonzero;"/><path d="M676.178,1516.61l0,-6.649l2.643,0l-0,-20.713c0.02,-3.126 -1.71,-6.013 -4.476,-7.469c-11.689,-6.098 -24.251,-6.092 -37.337,0.029c-2.943,1.398 -4.825,4.38 -4.82,7.639l-0,20.514l2.642,0l0,6.02c-19.931,5.585 -33.783,23.928 -33.701,44.627l0,44.82l5.034,1.679l-5.034,3.355l0,13.468l5.034,1.679l-5.034,3.356l0,13.469l5.034,1.677l-5.034,3.357l0,102.584c0.019,16.55 13.631,30.162 30.18,30.182l44.493,0c16.513,-0.018 30.094,-13.6 30.113,-30.113l-0,-102.653l-5.034,-3.356l5.034,-1.678l-0,-13.469l-5.034,-3.356l5.034,-1.678l-0,-13.469l-5.034,-3.355l5.034,-1.679l-0,-47.135c-0.069,-18.749 -12.031,-35.516 -29.737,-41.683Zm-36.772,-29.671c11.567,-5.403 22.141,-5.449 32.317,-0.137c0.891,0.488 1.443,1.43 1.434,2.446l-0,11.085l-35.305,-0l-0,-10.886c-0.01,-1.064 0.597,-2.043 1.554,-2.508Zm60.845,114.407l-12.147,4.049l12.147,8.098l-0,6.355l-12.147,4.049l12.147,8.1l-0,6.355l-12.147,4.048l12.147,8.099l-0,99.622c-0.016,13.407 -11.043,24.433 -24.449,24.449l-44.493,-0c-13.443,-0.016 -24.501,-11.074 -24.516,-24.518l0,-99.553l12.147,-8.099l-12.147,-4.048l0,-6.355l12.147,-8.1l-12.147,-4.049l0,-6.355l12.147,-8.098l-12.147,-4.049l0,-40.738c-0.073,-18.9 13.082,-35.465 31.508,-39.673l2.193,-0.507l0,-10.467l30.02,0l0,10.847l2.043,0.594c16.325,4.808 27.634,19.872 27.694,36.891l-0,43.053Z" style="fill:#fff;fill-rule:nonzero;"/><path d="M2007.42,1594.17l-14.259,-2.85l3.357,-6.715l-6.541,-1.309l1.131,-6.801l-7.141,-1.192l0,-6.451l-5.794,-1.655l5.501,-6.874l-9.544,-0l1.994,-4.979l-7.058,-1.175l2.395,-8.394l-7.636,0l0,-7.832l-2.832,-0c-8.922,-0 -13.898,10.598 -15.532,14.842c-49.257,8.59 -192.272,107.651 -208.595,119.043c-6.782,-2.2 -16.841,2.956 -18.94,4.101l-3.324,1.813l4.796,4.794l-1.43,4.287l8.8,3.3l-1.928,4.817l5.543,4.622l-4.979,3.736l7.493,4.497l-1.317,6.571l8.369,1.198l0,6.577l4.859,0.973l-2.422,8.491l5.396,-0l-0,6.715l5.265,-0l2.387,7.152l2.451,-0.492c5.697,-1.14 10.576,-9.022 12.484,-12.518c47.437,-8.466 193.893,-111.506 208.15,-121.597c16.641,1.994 22.756,-2.453 23.411,-2.976l2.708,-2.167l-6.466,-5.386l9.248,-6.166Zm-29.266,10.94l-1.104,-0.148l-0.909,0.646c-1.618,1.149 -162.235,114.94 -208.023,121.48l-1.469,0.211l-0.664,1.327c-1.755,3.579 -4.127,6.821 -7.005,9.578l-1.85,-5.548l-3.684,-0l-0,-6.715l-3.554,-0l2.052,-7.175l-6.331,-1.266l0,-6.848l-7.301,-1.043l0.924,-4.618l-3.698,-2.219l3.972,-2.978l-7.883,-6.569l2.548,-6.372l-9.105,-3.415l0.81,-2.429l-1.759,-1.761c4.254,-1.768 9.398,-3.083 11.608,-1.761l1.579,0.948l1.505,-1.057c1.606,-1.127 161.133,-112.705 209.134,-119.25l1.792,-0.245l0.534,-1.728c0.824,-2.678 3.756,-9.441 7.888,-11.756l-0,7.04l5.794,0l-2.08,7.274l6.372,1.062l-2.486,6.212l6.126,-0l-3.454,4.318l9.87,2.82l0,6.976l6.289,1.049l-1.103,6.626l4.649,0.928l-3.358,6.715l8.121,1.625l-4.182,2.786l6.012,5.012c-5.462,1.109 -11.082,1.2 -16.577,0.268l-0,-0Z" style="fill:#fff;fill-rule:nonzero;"/><circle cx="1268.18" cy="2057.77" r="82.129" style="fill:#badc58;"/><path d="M1319.89,2049.66l-43.6,0l0,-43.599l-16.222,0l0,43.599l-43.599,0l0,16.222l43.599,0l0,43.6l16.222,-0l0,-43.6l43.6,0l-0,-16.222Z" style="fill:#fff;fill-rule:nonzero;"/><path d="M1527.21,2060.6l-42.481,-19.825l0,11.328l-99.122,0l0,16.993l99.122,-0l0,11.328l42.481,-19.824Z" style="fill:#fff;fill-rule:nonzero;"/><path d="M1009.15,2060.6l42.481,-19.825l-0,11.328l99.121,0l0,16.993l-99.121,-0l-0,11.328l-42.481,-19.824Z" style="fill:#fff;fill-rule:nonzero;"/><rect x="230.231" y="2711.97" width="2075.89" height="5.664" style="fill:#4a6c43;"/><rect x="996.301" y="978.759" width="543.752" height="5.664" style="fill:#fff;"/><rect x="997.616" y="2525.06" width="543.754" height="5.664" style="fill:#fff;"/><path d="M2415.06,1965.73l-14.161,53.809c0,0 -50.976,113.282 0,118.946c50.977,5.664 53.809,-147.266 53.809,-147.266l-39.648,-25.489Z" style="fill:#a0616a;fill-rule:nonzero;"/><path d="M2502.85,1577.74l-101.954,402.151c0,-0 39.649,11.328 59.474,25.488l42.48,-427.639Z" style="fill:#fbc94b;fill-rule:nonzero;"/><path d="M2822.87,1883.6l28.32,438.968c0,-0 67.97,172.755 65.137,337.013c0,0 -25.488,65.138 -5.664,76.466c19.825,11.328 31.153,19.824 19.825,28.32c-11.328,8.496 -19.825,28.321 -11.328,33.985c8.496,5.664 11.328,14.16 8.496,14.16l-84.962,0c0,0 16.993,-42.481 -8.496,-53.809c-25.488,-11.328 -11.328,-39.649 -11.328,-39.649l-189.747,-555.081l-150.099,509.769c-0,-0 25.488,16.992 5.664,25.488c-19.824,8.496 -28.32,-8.496 -19.824,8.496c8.496,16.993 -2.832,25.489 -2.832,28.321c-0,2.832 -84.962,-8.496 -84.962,-8.496c0,-0 42.481,-36.817 22.657,-45.313c-19.825,-8.496 -28.321,-16.992 -22.657,-22.657c5.664,-5.664 28.321,-59.473 28.321,-59.473c-0,0 11.328,-203.907 14.16,-212.403c2.832,-8.496 -0,-48.145 -0,-67.97c-0,-19.824 -2.832,-99.121 5.664,-118.946c8.496,-19.824 16.992,-263.38 62.305,-291.701c45.313,-28.32 331.35,-25.488 331.35,-25.488Z" style="fill:#55ae42;fill-rule:nonzero;"/><path d="M2463.2,2721.89c-0,-0 56.641,116.114 16.992,130.274c-39.649,14.16 -90.626,2.832 -101.954,19.824c-11.328,16.992 -135.938,36.817 -138.77,-5.664c-2.832,-42.481 135.938,-121.778 135.938,-121.778l18.077,-29.108l69.717,6.452Z" style="fill:#0b170a;fill-rule:nonzero;"/><path d="M2921.99,2806.85c-0,0 56.641,116.114 16.992,130.274c-39.649,14.161 -90.626,2.832 -101.954,19.825c-11.328,16.992 -135.938,36.816 -138.77,-5.664c-2.832,-42.481 135.938,-121.779 135.938,-121.779l18.077,-29.107l69.717,6.451Z" style="fill:#0b170a;fill-rule:nonzero;"/><circle cx="2660.03" cy="1256.3" r="93.458" style="fill:#a0616a;"/><path d="M2723.75,1305.86l-11.328,82.13l-84.962,65.137l-22.656,-31.153l-0,-107.618l118.946,-8.496Z" style="fill:#a0616a;fill-rule:nonzero;"/><path d="M2590.64,1410.65c-0,-0 87.793,8.496 133.106,-22.657l90.626,535.258c-7.054,20.376 -319.081,77.838 -320.022,22.656l-14.16,-181.251l56.641,-271.877l53.809,-82.129Z" style="fill:#3f3d56;fill-rule:nonzero;"/><path d="M2715.95,1362.4l30.455,25.591c-0,0 124.61,19.824 116.114,53.809l-33.985,402.151l11.328,135.938c0,0 -96.29,-25.488 -169.923,0c-73.633,25.489 -15.133,-547.727 -15.133,-547.727c0,-0 67.506,-61.368 61.144,-69.762Z" style="fill:#fff206;fill-rule:nonzero;"/><path d="M2604.8,1393.4c0,-0 -90.626,65.393 -101.954,107.874c-11.328,42.481 -48.145,489.945 -48.145,489.945c0,-0 16.993,-8.496 25.489,5.664c8.496,14.16 138.77,-581.083 124.61,-603.483Z" style="fill:#fff206;fill-rule:nonzero;"/><path d="M2854.02,1985.55l-20.301,66.245c0,0 -5.187,123.502 -73.156,106.51c-67.969,-16.993 19.824,-161.427 19.824,-161.427l19.824,-31.153l53.809,19.825Z" style="fill:#a0616a;fill-rule:nonzero;"/><path d="M2566.62,1252.23c0,-0 -10.117,-15.176 -6.226,-31.52c2.325,-9.279 3.244,-18.854 2.724,-28.406c-0.519,-9.552 8.172,-26.461 16.344,-41.248c8.171,-14.787 4.28,-21.013 29.963,-25.682c25.682,-4.67 15.176,-38.135 82.884,-1.946c4.662,6.509 12.824,9.589 20.624,7.783c14.009,-2.724 19.067,16.732 19.067,16.732c0,0 9.34,-5.448 12.842,2.335c3.502,7.783 28.473,-4.671 28.473,47.862c0,52.532 -28.416,99.457 -28.416,99.457c-0,0 2.083,-88.366 -44.224,-97.316c-46.306,-8.95 -96.115,-35.021 -108.178,-1.556c-6.511,18.782 -15.196,36.739 -25.877,53.505Z" style="fill:#2f2e41;fill-rule:nonzero;"/><ellipse cx="2745.91" cy="1261.06" rx="9.134" ry="12.178" style="fill:#a0616a;"/><path d="M2839.86,1421.98c0,-0 45.313,-11.328 59.473,65.137c14.16,76.465 31.153,294.533 31.153,294.533l-67.969,229.396c-0,0 -67.97,-36.817 -82.13,-31.152l53.487,-199.153l-44.991,-202.998c0,-0 39.649,-155.763 50.977,-155.763Z" style="fill:#fbc94b;fill-rule:nonzero;"/><path d="M2773.98,1581.61l59.473,198.244l-59.473,201.075l33.985,-201.075l-33.985,-198.244Z" style="fill-opacity:0.15;fill-rule:nonzero;"/></g></g></svg>